<?xml version="1.0" encoding="UTF-8"?><svg id="b" xmlns="http://www.w3.org/2000/svg" viewBox="0 0 910.2 910"><g id="c"><path d="M433.9.4C216.7,9.7,34.4,176.3,4.5,391.1c-41.7,299,212,554,511.2,514.9,193.7-25.3,352.1-176.2,386.9-368.3C955.1,248.4,727.1-12.1,433.9.4ZM402.1,903c-198.7-22.8-360.9-178.4-392.3-375.7C-32.9,258.5,167.9,14.1,439.2,4.2c226.4-8.3,426,155.3,461.3,378.6,46.9,296.8-200.2,554.3-498.4,520.2Z" style="fill:#fe4900;"/><path d="M659,371c43.8,41.1,23.8,128-41.4,132.6-40,2.9-83.2-2.2-123.5,0-7.2,0-21.5,12.5-21.5,19.2v161.7h82.2v-105.5c54.3.9,106.3,3.3,151.4-31.4,79.4-61,78.3-175.3,1.6-238.1-20-16.4-62.6-38.7-88-26.1l-297,229.1c-11.7,6.9-58.4,6.3-71.1,1.2-12.7-5.1-19.7-15.3-21.8-28.7,2.2-34.9-3.2-74,0-108.4,1.8-19.6,18.2-33.7,37.3-35.1,12.5-.9,44.5-1.4,55.4,2.7,22.6,8.4,17.3,35.8,43.6,37.6,8.6.6,26.6.7,35.2,0,9.6-.7,19.9-10.1,22.8-19,5-15.7-7-38.7-15.6-51.8-34-52-87.3-57.9-145.2-54.6-64.6,3.7-115.8,59.5-118.7,123.2-1.5,31.9-1.4,71.4,0,103.3,2.7,58.5,44.5,107,102.4,116.9,18.6,3.2,63.7,3.7,81.7-.7,8.4-2.1,14.1-6.6,21.2-11.2l293-226.4c3-1.3,13.6,7,16.1,9.5Z" style="fill:#fe4900;"/><path d="M67.2,399l-38.7-8.1,30.1-14.3-21.9-24.5,39.9,7.5.8-3-46-9.1c-1,2.9.5,4.2,2.3,6.4,5.2,6.3,15.3,14.2,19.6,20.4.4.6,1.1.7.7,1.9l-30.4,13.5-1.3,3.8,44.9,8.9c1.7-1,1.6-2.9-.2-3.5Z" style="fill:#fe4900;"/><path d="M843.3,501.7c-.8.5-1.1,2.2-.7,2.7,1.1,1.7,39,5.7,39.9,7.9l-30.1,15.1,23.4,24.5-40.7-7.5c.4.9-.9,2.9-.8,3,1.7,1.6,40.5,6.4,46,8.3v-3.4c-1.7-3.4-24-23.2-22.6-25.2l29.6-13.5,1.3-3.8c-5.7.2-43.3-9.1-45.2-8Z" style="fill:#fe4900;"/><path d="M270.9,799.1c-2.3-.2-9.5,1-10.2.4-1-.7-2.6-8.9-3.4-8.7-5,1.4,1.8,8.5.2,11.2-.4.7-10.9,7-10.4,9.5.2.8,1.2,1.3,2.3.8,1.1-.6,8.5-9.2,9.8-7.9l5.3,18.1c-5.7,0-12.5-.7-16.1,4.6-8,11.5,10.7,22.5,18.8,12.8,3.7-4.4,2.7-9.2,1.9-14.3,22.2,1.4,22.7-24.2,1.9-26.4ZM250.2,829.7c.5-1,4-4.2,4.8-4.2h10.9c0,2.2.8,4.2.8,6.4-.1,15-22,8.5-16.5-2.2ZM280.8,819.2c-2,2-11.4,5.2-13.1,3.1l-6.2-19.4c9.4-5.8,29.4,6.3,19.3,16.3Z" style="fill:#fe4900;"/><path d="M654.9,112.8c1.7,1.4.8,9.8,5.2,8.7.6-2.3-3-9-2.2-10.4.6-1,10.4-5.7,10.5-9.5-.8-.9-.9-1.5-2.3-.8-2.3,1.2-5.6,6.7-8.7,7.9-1.4,0-4.9-15.9-6.4-18.1,9.4,2,24.7-4.8,16.9-15.8-9.1-12.9-26.7-2-20.7,12.8-31.2-.1-16.4,33,7.6,25.2ZM650.5,76c4-7.7,21-2.2,15.3,7.8-2.9,5.2-10.3,3.7-15.3,3.8-.8-3.6-1.7-8.2,0-11.5ZM634.7,94.2c2.2-2.6,10.7-5.8,13.4-4.1.9.6,5.2,17.7,6.1,20.2-9.3,4.4-28.3-5.4-19.5-16.1Z" style="fill:#fe4900;"/><path d="M424.8,64.1c5.8,1.1,13.9-1.4,18.6,4,9.6,11.2-15.2,21.2-23.3,9.7-.6-.8-2.2-6.5-4.2-4.5-1,1,1,5.5,1.9,6.7,4.9,6.6,16.7,6.6,23.5,3.2,10.7-5.3,8.3-19.3-3.5-20.5l6-4.9c4-5.6,4.1-12.1.6-18-.6-1.1-2.7-2.6-2.8-3.2-.2-1.3,4-4.3,3.7-6.3-3-2.3-4.8,4.5-5.7,4.6-.8,0-4.5-2.1-6.7-2.3-23.4-2.4-25.3,28.3-8.1,31.5ZM426.3,35.8c6.6-1.1,14,.2,16.6,7.1,4.7,12.4-7,22-18.7,17.9-12-4.2-9.9-23,2.1-25.1Z" style="fill:#fe4900;"/><path d="M474.4,842.8c-14.5-10.7,15.8-24.4,22.7-9.8,1,2.2-1.1,3.6,3.4,3-1-14.9-24.2-15.5-30.8-4.8-4.3,6.9.6,14.8,8.2,15.3.2,1,.2,1-.5,1.6-1.7,1.6-3.9,2.5-5.4,5-2.7,4.4-2.9,9.6-1,14.4.9,2.2,3.6,4.4,3.9,5.3.5,2-5,6.3-1.8,7,1.9.4,3-4.1,4.6-4.4,1-.2,3,1.2,4.5,1.3,14.2,1.3,26.1-8.2,19.8-22.8-5.9-13.6-19.7-5.3-27.4-11ZM472.4,860.5c.1-5.5,5-11.3,10.4-12.3,8.9-1.5,16.8,1.7,17.5,11.5,1.3,18.6-28.4,19.8-27.9.7Z" style="fill:#fe4900;"/><path d="M264.7,111.7c7.1-.5,17.3-10.1,23.5-2.2,7.5,9.6-10.8,22.3-20.6,16-1.5-1-1.7-2.3-2.5-2.9-.7-.6-3.4.3-1.5,3.1,7.1,11,34.7-1,28-16-2.6-6-7.9-5.9-13.7-5.5,5.5-6.1,5-14.9-.7-20.7-1.8-1.8-6.5-3.9-6.8-4.2-.7-.9,1.9-6.3,1.4-6.7-4.9-1.8-3,5.3-3.8,6-.2.2-3.5,0-4.7.2-23.2,5.2-16.6,34.2,1.2,32.9ZM262.7,81.8c17.4-3,21.9,19.3,7.5,25.6-19.6,8.5-26.7-22.2-7.5-25.6Z" style="fill:#fe4900;"/><path d="M650.1,795.4c-6.7.7-15.4,9.4-22,3-9-8.9,8.7-22.6,19.1-17.5,1.2.6,4.3,4.4,5.5,3.2.7-.7-.6-2.3-1.1-3-8.3-11-35.1,3-27.5,16.9,2.9,5.3,8,5.4,13.5,5-5.1,6-4.8,14.5.4,20.3,1.6,1.8,6.7,4.1,7,5.1.4,1.4-1.4,5.6-.7,6.3.2.2,1.9.2,2.3-.4.8-1.2.3-4.4,1.4-5.2.8-.5,7.2-1.3,9.6-2.5,16.5-7.8,9.8-32.9-7.6-31ZM656.6,823.8c-20,9.8-28-21.9-8-25.3,15.9-2.7,22.1,18.4,8,25.3Z" style="fill:#fe4900;"/><path d="M368.4,61.6c2.1-15.5-8.7-29.5-25-28-3.6.3-14.2,3-17.5,4.3-.7.3-1.6.3-1.8,1.2l12.5,43.9c12.4-2.6,29.8-6.2,31.9-21.5ZM344.8,36.4c21.2-.9,29,29.2,9.9,38.6-2,1-16.3,5.1-17.1,4.4l-9.8-39.2c5.6-.2,11.4-3.5,17-3.8Z" style="fill:#fe4900;"/><path d="M549.9,860.7c7.7,19.6,27.8,13.8,43.2,8.4l-12.8-44.5c-19.1,3.4-39.6,12.6-30.4,36ZM551,853.6c-2-17.4,13-22.4,27-25.1l11.2,38.1c-14.3,8.2-35.9,7.1-38.3-12.9Z" style="fill:#fe4900;"/><path d="M212.8,760.6c-.8,0-8.6,10.9-10.5,11.9-9.6-6.9-22.1-22.8-33.9-9.6-13.5,15.1,5.9,25.3,15.4,34.2l2.2.3c2.2-5.2,29.1-32.6,28.7-34.8,0-.4-1.7-2-1.8-2ZM185.3,793.8c-1.1.3-1.2-.3-1.9-.7-2.7-1.9-12.6-10.4-14.3-12.9-4-5.9-2-13.3,3.8-17.2,11-7.2,19.5,6.5,27.4,12.3l-15.1,18.5Z" style="fill:#fe4900;"/><path d="M702,153.2c.8,0,9.5-10.3,10.2-12h1.1c8.7,8,21.3,22.9,33.2,10.6,14.4-14.9-6.3-26.2-15.9-35.4l-30.4,35c0,.3,1.6,1.9,1.7,1.9ZM730.8,120.8c9.2,6.7,26.9,18.9,12,30.1-10.7,8-19.9-5.9-27.5-11.8l15.5-18.3Z" style="fill:#fe4900;"/><path d="M121.2,669.4c.5-1.8,4.9-2.6,5.3-4.1.3-1.5-1.8-2.4-2.8-1.3l-36.4,26.2c.9,1.1.9,1.2,2.3.8,1.8-.5,14.5-11,15-10.2-3.7,15.3,10.7,28.2,25.1,19.5,14.7-8.9,8.4-31.1-8.5-30.8ZM111.1,696.5c-9.2-8.9-2.7-23.3,9.2-24.6,5.8-.6,11.6,3.1,13.9,8.3,6,13.7-12.4,26.6-23.1,16.3Z" style="fill:#fe4900;"/><path d="M778.6,238.6c3,4.6,7.9,7.2,13.4,7.3-1.6,2.3-6.4,2.3-4.5,6l39.2-24.9c-.1-.9-.4-3.4-1.8-2.9-1.8.7-15.4,11.3-16.3,10.5,1.9-6.1.5-13.2-4-17.8-13.4-13.4-37.6,4.4-26,21.8ZM781.2,221.1c1.8-2.4,6.3-5.4,9.2-5.9,13.8-2.6,23.1,15.2,11,24.6-13.8,10.6-29.6-6-20.2-18.7Z" style="fill:#fe4900;"/><path d="M41.9,439.8c-1.8.5-5.6,4.1-6.2,5.9-3.2,9.6,6,17.7,14.9,13.4,11.4-5.5,4.8-22.7-8.7-19.2Z" style="fill:#fe4900;"/><path d="M858.2,450.3c-3.7.5-7.9,4.3-8.7,7.9-1.8,8.7,6.1,14.6,14.4,12.1,2.6-.8,8.1-8.2,7.2-11.4-1.2-4.2-8.2-9.3-12.9-8.7Z" style="fill:#fe4900;"/><path d="M553.9,71.8l-.7,6c.8-.1,2.5.3,2.9,0,1.2-1,5.2-27.3,6.9-31.1,0-.6-2-1.6-2.7-.5-1,1.6-.3,5-1.9,6-3.5-11.8-21.1-14.5-28.2-4.5-12,16.8,7.1,36.3,23.7,24.1ZM539.4,44.9c11-2,19,4.6,17.5,16-1.4,10.5-12.7,15.1-21.6,9.6-9.4-5.8-6.6-23.6,4.1-25.6Z" style="fill:#fe4900;"/><path d="M830,333.5c1.2.6,5,.7,1.7,2.1-.8.3-4.7,1.2-4.9,1.5,0,0,.7,2.1.8,2.2,1.2,1,25.7-9.3,29.6-9.9l1.3-2.9-6.8,1.5c9.7-15.3-5.2-32.6-22.1-24-12.5,6.3-11.3,23.2.5,29.4ZM843.1,331.2c-20.6,7.7-27.5-22.9-7.5-26.3,16.8-2.8,23.4,20.4,7.5,26.3Z" style="fill:#fe4900;"/><path d="M90.5,591.3c-2.1-5.5-6.1-8.3-11.4-10.4l6-1.9-1.1-3-30.6,11.3c.1,4.9,6.7,0,7.5.8-4.2,5.4-3.9,12-.9,17.8,8.8,17,38.1,6,30.4-14.6ZM81.3,609.6c-20.2,10.4-30.4-22.5-8.5-25.9,16.1-2.5,22.4,18.7,8.5,25.9Z" style="fill:#fe4900;"/><path d="M848.4,574.3c-16.1-10.1-32.7,6.5-23.9,22.7-3.2.6-6.2-3.7-6,1.5,9.7,2.3,20.3,8.3,29.9,10.5,1.7.4,1.3-2.2.9-2.8-.5-.8-4.8-.7-5.2-2.4,13.3-4,16.6-21.8,4.3-29.5ZM852.2,593.5c-6,16.5-34.7,6.7-26.1-11.8,1.3-2.8,5-6.5,8-7.1,11.9-2.4,22.6,6.6,18.1,18.9Z" style="fill:#fe4900;"/><path d="M86.9,326.5c4.3-6.1,4.6-13,1.2-19.5l6,1.5c-.1-.9.3-2.2-.1-2.9l-30.8-10.7c-.8,4,3.9,2.7,5.3,5.3-7.5,1-12.4,9.7-12.1,17,.6,14.3,21.9,21.4,30.5,9.4ZM71.3,301.8c2.4-.2,5.1.5,7.4,1.3,17.9,6.7,7.2,33.5-11.5,25-12.9-5.8-9.2-25,4.1-26.3Z" style="fill:#fe4900;"/><path d="M363.2,839c-.4.3-.6,1.6-1.5,1.5-.5-1.3.6-2.3.7-3,.2-.6.9-3.6.8-3.8-.1-.1-2.3,0-3-.8l-6.8,32.4,3,.8,1.1-6.8c10.2,18.8,35.6,10.5,31.9-11.5-1.9-11.1-17.8-15.6-26.2-8.8ZM365.2,864.5c-11.2-7.2-5.2-26.6,8.1-26.3,2.7,0,7.9,2.2,9.9,4.1,10.7,10.2-2.2,32.4-18.1,22.2Z" style="fill:#fe4900;"/><path d="M758.2,707.5c.2,3,.6,2.1,2.9.8-2.2-12.5,10.3-22.3,22-15.5.9,1.2-17.6,21.3-18,23.9-.2,1.3,4.3,3.7,5.4,4.2,15.8,6,29.6-14.5,17.5-27.3-12-12.8-31.1-3-29.8,14ZM774.4,719.1c-1.5-.2-6.5-1.5-5.4-3.7,5.4-5.3,10-14.5,15.1-19.5.5-.5,1-1.3,1.8-.8.2.1,2.4,4,2.7,4.5,4.2,9.6-4,20.8-14.3,19.5Z" style="fill:#fe4900;"/><path d="M127.7,212.7c10,8.6,24.1,4.1,27.9-8.3.8-2.6,2-9.5-1.9-8.3.9,13.1-10.2,22.9-22.6,15.8l18.8-23.7c-16.4-16.4-39.6,9.4-22.2,24.5ZM140.3,185.8c2.1.3,6.3,1.8,4.7,4.3l-15.5,19.6c-.5.4-1.1,0-1.6-.5-8.9-9.4-.2-25.4,12.3-23.5Z" style="fill:#fe4900;"/><path d="M748.6,199.7c14.3,14.4,37.9-5.6,26.1-22-14.5-20.1-43.1,5-26.1,22ZM757.2,173.7c16.6-3.4,24.3,17,10.7,25.8-12.3,8-27.9-7.1-18.7-20.2,1.4-2,5.6-5.1,8-5.6Z" style="fill:#fe4900;"/><path d="M166.8,738c10.1-12.4-.6-30.2-15.6-27.6-5.9,1-11.8,6.3-13.7,11.9-5.9,17.4,17.4,30.4,29.3,15.7ZM140.5,722.2c1.6-4,6.4-8.1,10.7-8.9,12.7-2.2,21.7,11.4,13.8,22-10.5,14-30.3,1.9-24.5-13.2Z" style="fill:#fe4900;"/><path d="M122.4,251.2l-12.5-7.9c.8-1.7,18.3-4.9,21.3-6.6,1.5-.8,2.2-2.1,2.8-3.6l-24.1,6.8-4.9-22.6c-.7,1-1.5,2.6-1.5,3.8,0,3.3,4.6,18.6,3.4,20.3-6.8-3.1-15.4-11.4-21.9-13.9-1.5-.6-1.9-.6-3,.7l38.2,25.1c.8.2,2.7-1.4,2.1-2.2Z" style="fill:#fe4900;"/><path d="M792.5,651.4c-.8.7-1.6,1-.8,2.3.9,1.4,8.7,5.2,10.7,6.6.5.3,2.2.5,1,1.7-.9.9-18.1,4.6-20.8,6-4.2,3.7-3.9,4.1,1.2,2.7,6.5-1.8,12.9-4,19.2-6.4.9.5.8,1.1,1.1,1.9,1.9,6,2.6,14.4,3.8,20.7,2.1.6,2.3-2.7,2.3-4.1-.1-3.2-4.7-18.8-3.8-20,6.8,3.2,15.9,11.6,22.6,14,2.4.9,3.4-1.3,3-1.8l-39.5-23.5Z" style="fill:#fe4900;"/><path d="M57.4,562.3c7.1-4.6.5-20.8,5.4-24.8,3.9-3.2,8.2.8,9.8,4.5,2.1,4.8,2,8.5.6,13.4-.6,2.3-2.9,2.5.1,4.6,6.8-5.8,3.3-25.3-6-26.4-15.1-1.7-6.3,22.5-11,26-6.7,5-11.2-7.1-11.3-12,0-2.6,1.8-6.3,1.6-7.4,0-.4-2.2-1.3-2.3-1.2-1.6,1.2-1.7,10.7-1.3,13,1,6.5,7.4,14.8,14.4,10.2Z" style="fill:#fe4900;"/><path d="M850.7,375c-.8,4.5-5.2,5.7-8.9,3.2-2.8-2-4.7-8.7-4.6-12,0-3.1,2.3-6.9,2.3-8.3,0-1.2-1.5-2.4-2.3-1.9-.3.2-2.1,5.6-2.2,6.5-1.1,7.9,1.7,21.6,12.2,19.7,9.7-1.7,5.1-17.6,6.9-24,.4-1.4,2.6-2.6,3.9-2.7,7.5-.6,10.4,15.9,6.3,20.9l3,.8c3.7-8.2.8-25.9-10.9-24.1-8.4,1.3-4.8,16.1-5.9,22Z" style="fill:#fe4900;"/><path d="M694.3,763.3c0,1.7,12.9,14.8,13.2,21.3.5,9.7-11.7,17.7-19.7,9.9-3.8-3.7-8.8-14-12.1-16.6-1.7-1.3-3.3-.1-1.8,2.6,2.1,3.7,11.2,16,14.4,18,9.7,6.1,21.3-2.6,21.7-13l3.4,3.8,1.8-1.8-19.1-26.1c-.4.5-1.7,1.4-1.7,1.9Z" style="fill:#fe4900;"/><path d="M218.8,144.9c.2,0,2-1.7,1.8-2.5-.2-.9-9-11.9-10.3-14.6-3.4-6.5-2.8-12.8,3.7-17.1,12.7-8.5,19.6,10.5,25.7,18.3,1.2.6,3.2-.4,2.9-1.8-5.5-5.3-11-19.3-18.8-21.2-9-2.1-18,5.9-18.2,14.7-2.1-1.3-3.1-5.9-6-2.6,3.4,2.5,17.6,26.7,19.2,26.7Z" style="fill:#fe4900;"/><path d="M152.9,159.6c0,.9-6.4,4.4-3.8,6,2,1.2,4.7-4.1,5.7-4.1s14.3,15.7,18.7,17.5c4.6,1.9,11.9-2.4,12.5-6.8.2-1.5-1.1-3.3-2.1-2.5-.1,0-.4,2-1.2,3-2.5,3.1-4.3,5-8.4,3.2-1.1-.4-16.5-15.3-16.7-16.5.2-2,7.5-7.4,7.5-8.2,0-.1-1.7-1.9-1.9-1.9-.5,0-6.3,6.8-7.6,7.5-1.5.3-6.7-6.7-7.4-6.7-.1,0-1.7,1.6-1.8,2-.3,1.5,6.7,6.7,6.7,7.4Z" style="fill:#fe4900;"/><path d="M805.8,286.1c1,1.6,7.5,7.8,8.9,6.5,0,0,.6-2,.4-2.3-1.7-2.3-5.7-2.3-8.1-7.8-8.6-19.8,23.8-29.1,27.1-8.2.7,4.3-2.7,8,2.4,7,.9-7.1-.2-13.7-6.1-18.4-14.4-11.4-35.7,6.4-24.7,23.2Z" style="fill:#fe4900;"/><path d="M100.9,654c11.9-5.7,12-21.4,1.9-29-.5-.4-3.6-2.3-3.8-2.2-.8,0-1.6,2.3-1.1,3,0,.1,2.1.4,3,1.2,19.2,15.8-8.3,37.6-19.9,19.9-1.8-2.8-2-5.5-2-8.7,0-3.1,2.3-3.4-2.2-4.1-3.8,15.1,9.6,26.9,24.1,20Z" style="fill:#fe4900;"/><path d="M761.9,744.8c2.6-.7,5.9-4.3,2.6-6-1.9,1-2.8,5.1-5.1,4.4-1.4-.4-9.7-9.8-11.8-11.6-4.4-3.8-8.8-8.3-14.6-4-1.2.9-5,6.2-5,7,0,.8,2.3,1.6,3,1.1,1.3-.9,1-8.3,8.5-6.6,3.5.8,13.9,13.5,17.8,16.2,1.3,2.1-10.1,9.1-5.6,10,1.4.3,6.7-6.5,8.3-7.5l6.8,6.8c.7-.8,2.8-1.9,1.4-3-1.1-.9-7.3-5.3-6.3-6.7Z" style="fill:#fe4900;"/><path d="M870.7,404.1c-10.2,2.2-31.9-2.3-27.6,14.3.5,1.9,3.3,6.3,4,2.8.4-1.8-5.6-7.7.8-11.2,5-2.7,18.7-1.6,24.8-3.4l.8,11.3h3s-1.5-11.3-1.5-11.3c1.2-1.8,11.1,1,9.8-3.8l-9.7.7-.8-6.7c-6.4-1.7.2,6.2-3.5,7.4Z" style="fill:#fe4900;"/><path d="M68.3,498.9c-.4-2.4-3.6-7.8-4.3-3.9-.3,1.5,4.6,6.8.7,10.5-3,2.9-21.4,3.4-26.4,4.2l-.8-10.6h-3s1.5,11.3,1.5,11.3c-1.8.4-10.3,0-9.8,2.6,1.6,2.9,9.4-.8,10.6.4.2.2-.4,4.9.7,6.3,2.8,3.8,2.6-5.1,1.6-7.1,9.8-2.8,31.8,1.8,29.2-13.8Z" style="fill:#fe4900;"/><path d="M498.1,37.1c-.5,5.5-1.9,11.6-2.3,17-.5,8.7-.7,15.4,10.2,14.7,2.2-.1,6.6-1.4,3.4-3.4-.5-.3-7.6,2.7-10.2-1.1-2.9-4.3,2.1-20.5,1.1-26.4l11.6.8c2.7-4.7-9.5-2.4-10.8-3.8l.7-9.8c-5.1-1.2-2,8-3.8,9.8-.2.2-5.2-1.7-6.8-.8-1,3.5,4,2.8,6.8,3Z" style="fill:#fe4900;"/><path d="M419,873.7c-.7-7.2,5.4-25.5-1.1-30.2-2.1-1.5-10.5-2.1-11.7-.7-.4.5.1,2.8,1.1,2.9,2.3.3,8.3-4.2,10.4,2.5.9,8-1.3,16.6-1.8,24.7l-10.9-.7c-2.4,5.1,9.2,2.2,10.9,3.8l-.8,9.3c4.5,2.5,1.9-7.7,3.7-9,1.1-.8,5.9,1.3,6.8.4,2.6-2.4-5.1-3.9-6.8-3Z" style="fill:#fe4900;"/><path d="M809.9,621.1c8.6,3.5,27.5,10.4,20.6,23-1.2,2.2-3.9,2.3-2.2,5.7,6.6-3.5,7.9-12.1,3.8-18.1l5.6,2.3,1.1-1.9-28.1-14.1c-2.2-1.3-2.9,2.2-.8,3.1Z" style="fill:#fe4900;"/><path d="M104.6,283.6c-8.9-2.9-28.8-11-21.8-23.6,1.1-1.9,4.8-3.3,1.8-5.7-6.1,4.6-7.7,11.6-3.4,18.1-1.2,1-6.2-4.8-6.8-.4l28.4,14.6c1.3.7,1.9-2.7,1.8-2.9Z" style="fill:#fe4900;"/><polygon points="593.1 40.9 590 41.4 575.7 84.6 578.8 85.4 593.1 40.9" style="fill:#fe4900;"/><path d="M336.9,827l-12.9,44.4,2.6-.8c.7-5.5,14.9-42.1,13.2-43.7-.1-.1-2.8,0-3,0Z" style="fill:#fe4900;"/><path d="M446.1,846.2l.4,31.3c1.9.6,1.6.2,1.9-1.1,2.1-9.8,0-21.9.8-32-1.8-.2-2.7,0-3,1.9Z" style="fill:#fe4900;"/><path d="M200.7,160c.9-.2,1.6-2.1.8-3-2.9-2.5-19.2-23.8-21.1-23.4-2.6.5.5,4.1,1.1,4.9,2.9,2.1,17.8,21.8,19.2,21.5Z" style="fill:#fe4900;"/><path d="M388.1,39c.5,7.2,2.8,21.7,4.5,28.7,1,4,3.2,2.9,3-.7-.4-9.4-4.4-20.2-4.5-29.8-2.6,0-3.2-.8-3,1.9Z" style="fill:#fe4900;"/><path d="M470.2,65l.8-32.4c-1.8-.2-2.7,0-3,1.9,1.2,3.8-1.9,29.5-.8,30.5.2.2,2.3-.1,3,0Z" style="fill:#fe4900;"/><path d="M528.9,870.3l-5.3-30-2.9-1.3c.6,3.9,3.9,31.5,5.3,32.4.6.4,2.7,0,2.8-1.1Z" style="fill:#fe4900;"/><path d="M735.2,768.9c-4.5-5.8-11.5-13.4-16.6-18.8-1.5-1.6-5.5-6.4-5.3-1.5l20,23,3-.4c.3-1.3-.5-1.5-1.1-2.3Z" style="fill:#fe4900;"/><path d="M174.8,124.2c-3.1-1.9-4.9,2.1-3.7,4.1,1.9,3,7.4-1.8,3.7-4.1Z" style="fill:#fe4900;"/><path d="M472.4,24.2c1.3-2-.6-5.9-3.7-4.1-3.7,2.3,1.7,7.1,3.7,4.1Z" style="fill:#fe4900;"/><path d="M444.7,889.4c1.3,2.1,6.2,0,4.8-2.9-1.6-3.3-7-.6-4.8,2.9Z" style="fill:#fe4900;"/><path d="M741.4,776.5c-3.4.8-1.9,5.9,1.2,5.1,3.4-.8,1.9-5.9-1.2-5.1Z" style="fill:#fe4900;"/><path d="M385.9,29.5c2.1,1.3,6.1-1,4.1-3.7-2.6-3.6-6.8,2.1-4.1,3.7Z" style="fill:#fe4900;"/><path d="M527.1,879.7c-1.6,2.3,1.5,6.1,4,3.6,2.4-2.3-2.1-6.3-4-3.6Z" style="fill:#fe4900;"/><path d="M362.4,839.2c.2-.3.4-.5.8-.2l-.8-1.5c.2.6,0,1.1,0,1.7Z" style="fill:#fe4900;"/></g></svg>